<?xml version="1.0" encoding="UTF-8" standalone="no"?>
<!-- Created with Inkscape (http://www.inkscape.org/) -->

<svg
   width="142.23761mm"
   height="186.51088mm"
   viewBox="0 0 142.23761 186.51088"
   version="1.1"
   id="svg5"
   xml:space="preserve"
   inkscape:version="1.2.1 (9c6d41e410, 2022-07-14)"
   sodipodi:docname="Xmas_border.svg"
   xmlns:inkscape="http://www.inkscape.org/namespaces/inkscape"
   xmlns:sodipodi="http://sodipodi.sourceforge.net/DTD/sodipodi-0.dtd"
   xmlns="http://www.w3.org/2000/svg"
   xmlns:svg="http://www.w3.org/2000/svg"><sodipodi:namedview
     id="namedview7"
     pagecolor="#ffffff"
     bordercolor="#000000"
     borderopacity="0.25"
     inkscape:showpageshadow="2"
     inkscape:pageopacity="0.0"
     inkscape:pagecheckerboard="0"
     inkscape:deskcolor="#d1d1d1"
     inkscape:document-units="mm"
     showgrid="false"
     inkscape:zoom="0.914906"
     inkscape:cx="206.5786"
     inkscape:cy="349.2162"
     inkscape:window-width="1850"
     inkscape:window-height="1016"
     inkscape:window-x="0"
     inkscape:window-y="0"
     inkscape:window-maximized="1"
     inkscape:current-layer="layer2" /><defs
     id="defs2" /><g
     inkscape:groupmode="layer"
     id="layer2"
     inkscape:label="圖層 2"
     transform="translate(-44.493518,-48.23851)"><g
       id="ellipse6760"><path
         style="color:#000000;display:inline;fill:none;fill-opacity:1;stroke:#fecf4a;stroke-width:4.99999;stroke-opacity:1;-inkscape-stroke:none"
         d="M 115.33198,50.738505 A 30.827736,12.133631 0 0 0 84.568998,62.451485 H 66.37476 c -6.421002,0 -11.590507,4.834713 -11.590507,10.840165 v 52.03972 a 9.4354486,17.445271 0 0 0 -7.790739,17.15554 9.4354486,17.445271 0 0 0 7.790739,17.15554 v 52.03972 c 0,6.00545 5.169505,10.84016 11.590507,10.84016 h 18.794202 a 30.827736,12.133631 0 0 0 30.163018,9.72706 30.827736,12.133631 0 0 0 30.16353,-9.72706 h 18.7942 c 6.42101,0 11.59051,-4.83471 11.59051,-10.84016 v -51.90794 a 9.4354486,17.445271 0 0 0 8.35091,-17.28732 9.4354486,17.445271 0 0 0 -8.35091,-17.28732 V 73.29165 c 0,-6.005452 -5.1695,-10.840165 -11.59051,-10.840165 h -18.15186 a 30.827736,12.133631 0 0 0 -30.80587,-11.71298 z"
         id="path7224" /></g></g></svg>
