<?xml version="1.0" encoding="UTF-8" standalone="no"?>
<!-- Created with Inkscape (http://www.inkscape.org/) -->

<svg
   width="61.654491mm"
   height="51.656971mm"
   viewBox="0 0 61.654491 51.656971"
   version="1.1"
   id="svg7432"
   xml:space="preserve"
   inkscape:version="1.2.1 (9c6d41e410, 2022-07-14)"
   sodipodi:docname="Xmas_head.svg"
   xmlns:inkscape="http://www.inkscape.org/namespaces/inkscape"
   xmlns:sodipodi="http://sodipodi.sourceforge.net/DTD/sodipodi-0.dtd"
   xmlns="http://www.w3.org/2000/svg"
   xmlns:svg="http://www.w3.org/2000/svg"><sodipodi:namedview
     id="namedview7434"
     pagecolor="#ffffff"
     bordercolor="#000000"
     borderopacity="0.25"
     inkscape:showpageshadow="2"
     inkscape:pageopacity="0.0"
     inkscape:pagecheckerboard="0"
     inkscape:deskcolor="#d1d1d1"
     inkscape:document-units="mm"
     showgrid="false"
     inkscape:zoom="1.829812"
     inkscape:cx="60.661969"
     inkscape:cy="119.95768"
     inkscape:window-width="1850"
     inkscape:window-height="1016"
     inkscape:window-x="0"
     inkscape:window-y="0"
     inkscape:window-maximized="1"
     inkscape:current-layer="layer3" /><defs
     id="defs7429" /><g
     inkscape:groupmode="layer"
     id="layer3"
     inkscape:label="圖層 2"
     transform="translate(-38.011775,-93.56259)"><g
       id="g9375"><path
         style="fill:#fa0001;fill-opacity:1;stroke:none;stroke-width:10;stroke-linecap:round;stroke-linejoin:round;stroke-dasharray:none;stroke-opacity:1"
         d="m 42.940467,107.31389 31.800368,-13.7513 20.080756,23.64821 -32.9063,21.9187 -6.285403,-8.89942 -14.057434,9.07678 z"
         id="path7557"
         sodipodi:nodetypes="ccccccc" /><path
         style="fill:#fbfae6;fill-opacity:1;stroke:none;stroke-width:10;stroke-linecap:round;stroke-linejoin:round;stroke-dasharray:none;stroke-opacity:1"
         id="path8394"
         sodipodi:type="arc"
         sodipodi:cx="43.728397"
         sodipodi:cy="136.85408"
         sodipodi:rx="5.7166219"
         sodipodi:ry="5.7166219"
         sodipodi:start="0"
         sodipodi:end="6.2819456"
         sodipodi:arc-type="slice"
         d="m 49.445019,136.85408 a 5.7166219,5.7166219 0 0 1 -5.71485,5.71662 5.7166219,5.7166219 0 0 1 -5.718392,-5.71308 5.7166219,5.7166219 0 0 1 5.711305,-5.72016 5.7166219,5.7166219 0 0 1 5.721933,5.70953 l -5.716618,0.007 z" /><path
         id="path8586"
         style="fill:#fbfae6;fill-opacity:1;stroke:none;stroke-width:10;stroke-linecap:round;stroke-linejoin:round;stroke-dasharray:none;stroke-opacity:1"
         d="m 93.944137,115.24826 a 5.7166219,5.7166219 0 0 0 -2.798279,0.73743 c -0.302702,0.0941 -0.622802,0.24402 -0.935344,0.44751 l -27.719755,18.048 c -0.134095,0.0873 -0.2584,0.18036 -0.374654,0.27647 a 5.7166219,5.7166219 0 0 0 -2.532662,4.74906 5.7166219,5.7166219 0 0 0 5.718514,5.71283 5.7166219,5.7166219 0 0 0 2.9099,-0.79943 c 0.183713,-0.0821 0.369917,-0.18281 0.553455,-0.30231 l 27.620536,-17.9834 a 5.7166219,5.7166219 0 0 0 3.28042,-5.16971 h -3.942395 l -10e-4,-0.002 3.943429,-0.005 a 5.7166219,5.7166219 0 0 0 -5.722131,-5.70973 z" /></g></g></svg>
